<svg width="167" height="29" viewBox="0 0 167 29" fill="none" xmlns="http://www.w3.org/2000/svg">
<path d="M9.03711 1.29968L14.75 19.1063L20.4453 1.29968H28.5664V26.8934H22.3789V20.9169L22.9766 8.6825L16.7891 26.8934H12.7109L6.50586 8.66492L7.10352 20.9169V26.8934H0.933594V1.29968H9.03711Z" fill="#F2F8FC"/>
<path d="M64.9777 14.6239C64.9777 17.12 64.5148 19.329 63.5891 21.2509C62.6633 23.1727 61.3449 24.6552 59.634 25.6981C57.9348 26.7294 55.9953 27.245 53.8156 27.245C51.6359 27.245 49.7023 26.7469 48.0148 25.7509C46.3273 24.743 45.009 23.3075 44.0598 21.4442C43.1223 19.5809 42.6301 17.4423 42.5832 15.0282V13.5868C42.5832 11.079 43.0402 8.87 43.9543 6.95984C44.8801 5.03796 46.1984 3.55554 47.9094 2.51257C49.632 1.4696 51.5891 0.94812 53.7805 0.94812C55.9484 0.94812 57.882 1.46375 59.5812 2.495C61.2805 3.52625 62.5988 4.99695 63.5363 6.9071C64.4855 8.80554 64.966 10.9852 64.9777 13.4462V14.6239ZM58.7023 13.5516C58.7023 11.0087 58.2746 9.08093 57.4191 7.76843C56.5754 6.44421 55.3625 5.7821 53.7805 5.7821C50.6867 5.7821 49.052 8.10242 48.8762 12.743L48.8586 14.6239C48.8586 17.1317 49.2746 19.0594 50.1066 20.4071C50.9387 21.7548 52.175 22.4286 53.8156 22.4286C55.3742 22.4286 56.5754 21.7665 57.4191 20.4423C58.2629 19.118 58.6906 17.2137 58.7023 14.7294V13.5516Z" fill="#F2F8FC"/>
<path d="M100.334 26.8934H94.1996L85.1293 10.9677V26.8934H78.9594V1.29968H85.1293L94.182 17.2255V1.29968H100.334V26.8934Z" fill="#F2F8FC"/>
<path d="M130.91 16.0477H121.207V22.1473H132.668V26.8934H115.037V1.29968H132.703V6.06335H121.207V11.4598H130.91V16.0477Z" fill="#F2F8FC"/>
<path d="M155.35 12.4091L160.061 1.29968H166.723L158.479 17.7001V26.8934H152.221V17.7001L143.995 1.29968H150.622L155.35 12.4091Z" fill="#F2F8FC"/>
<path d="M41 25.0944H67V28.1145H41V25.0944Z" fill="#F2F8FC"/>
</svg>
