<svg style="position: absolute; width: 0; height: 0; overflow: hidden;" version="1.1" xmlns="http://www.w3.org/2000/svg" xmlns:xlink="http://www.w3.org/1999/xlink">
<defs>
<symbol id="icon-files" viewBox="0 0 24 24">
<title>files</title>
<path d="M5 0v3h-3v21h17v-3h3v-21h-17zM17 22h-13v-17h1v16h12v1zM20 19h-13v-17h13v17zM15 5h-6v2h6v-2zM18 8h-9v1h9v-1zM18 10h-9v1h9v-1zM18 12h-9v1h9v-1zM12 14h-3v1h3v-1z"></path>
</symbol>
<symbol id="icon-expand" viewBox="0 0 32 32">
<title>expand</title>
<path d="M12.756 17.787l-10.787 10.788 0.031-6.575c0-0.552-0.448-1-1-1s-1 0.448-1 1v9c0 0.296 0.122 0.535 0.316 0.699 0.181 0.185 0.433 0.301 0.713 0.301h8.971c0.552 0 1-0.448 1-1s-0.448-1-1-1h-6.629l10.799-10.798-1.414-1.415zM31.684 0.301c-0.181-0.185-0.433-0.301-0.712-0.301h-8.972c-0.552 0-1 0.448-1 1s0.448 1 1 1h6.628l-10.798 10.799 1.414 1.414 10.788-10.788-0.032 6.575c0 0.552 0.448 1 1 1s1-0.448 1-1v-9c0-0.296-0.122-0.535-0.316-0.699z"></path>
</symbol>
<symbol id="icon-search" viewBox="0 0 34 32">
<title>search</title>
<path d="M6.955 22.949l2.307 2.262-6.922 6.789-2.309-2.262 6.923-6.789zM19.612 22.4c-5.398 0-9.79-4.307-9.79-9.6 0-5.294 4.393-9.6 9.79-9.6 5.399 0 9.79 4.306 9.79 9.6 0 5.293-4.391 9.6-9.79 9.6v0zM19.612 0c-7.209 0-13.054 5.731-13.054 12.8s5.845 12.8 13.054 12.8c7.211 0 13.054-5.731 13.054-12.8s-5.843-12.8-13.054-12.8v0z"></path>
</symbol>
<symbol id="icon-twitter" viewBox="0 0 30 32">
<title>twitter</title>
<path d="M28.929 7.571q-1.196 1.75-2.893 2.982 0.018 0.25 0.018 0.75 0 2.321-0.679 4.634t-2.063 4.437-3.295 3.759-4.607 2.607-5.768 0.973q-4.839 0-8.857-2.589 0.625 0.071 1.393 0.071 4.018 0 7.161-2.464-1.875-0.036-3.357-1.152t-2.036-2.848q0.589 0.089 1.089 0.089 0.768 0 1.518-0.196-2-0.411-3.313-1.991t-1.313-3.67v-0.071q1.214 0.679 2.607 0.732-1.179-0.786-1.875-2.054t-0.696-2.75q0-1.571 0.786-2.911 2.161 2.661 5.259 4.259t6.634 1.777q-0.143-0.679-0.143-1.321 0-2.393 1.688-4.080t4.080-1.688q2.5 0 4.214 1.821 1.946-0.375 3.661-1.393-0.661 2.054-2.536 3.179 1.661-0.179 3.321-0.893z"></path>
</symbol>
<symbol id="icon-facebook" viewBox="0 0 18 32">
<title>facebook</title>
<path d="M17.125 0.5v4.714h-2.804q-1.536 0-2.071 0.643t-0.536 1.929v3.375h5.232l-0.696 5.286h-4.536v13.554h-5.464v-13.554h-4.554v-5.286h4.554v-3.893q0-3.321 1.857-5.152t4.946-1.83q2.625 0 4.071 0.214z"></path>
</symbol>
<symbol id="icon-google-plus" viewBox="0 0 32 32">
<title>google-plus</title>
<path d="M10.31 14.338v3.415h5.648c-0.228 1.464-1.707 4.296-5.648 4.296-3.4 0-6.174-2.816-6.174-6.288s2.774-6.288 6.174-6.288c1.935 0 3.229 0.825 3.969 1.537l2.703-2.604c-1.736-1.622-3.983-2.603-6.672-2.603-5.506 0-9.958 4.453-9.958 9.958s4.453 9.958 9.958 9.958c5.747 0 9.561-4.040 9.561-9.73 0-0.654-0.072-1.152-0.158-1.65l-9.402 0zM31.649 14.338h-2.845v-2.845h-2.845v2.845h-2.845v2.845h2.845v2.845h2.845v-2.845h2.845z"></path>
</symbol>
<symbol id="icon-line" viewBox="0 0 34 32">
<title>line</title>
<path d="M30.632 14.035c0-6.234-6.252-11.307-13.935-11.307s-13.933 5.072-13.933 11.307c0 5.589 4.957 10.271 11.653 11.157 0.454 0.097 1.071 0.3 1.227 0.687 0.14 0.351 0.091 0.903 0.044 1.259 0 0-0.162 0.983-0.198 1.194-0.060 0.352-0.28 1.377 1.206 0.75 1.488-0.626 8.025-4.725 10.948-8.090h-0.001c2.021-2.213 2.988-4.461 2.988-6.957zM11.243 17.744h-2.768c-0.404 0-0.731-0.327-0.731-0.731v-5.536c0-0.402 0.328-0.731 0.731-0.731 0.402 0 0.73 0.328 0.73 0.731v4.806h2.038c0.404 0 0.73 0.328 0.73 0.73 0 0.404-0.326 0.731-0.73 0.731zM14.107 17.013c0 0.404-0.328 0.731-0.73 0.731s-0.731-0.327-0.731-0.731v-5.536c0-0.402 0.328-0.731 0.731-0.731s0.73 0.328 0.73 0.731v5.536zM20.771 17.013c0 0.316-0.2 0.595-0.499 0.694-0.075 0.025-0.154 0.038-0.233 0.038-0.227 0-0.446-0.109-0.583-0.293l-2.837-3.863v3.424c0 0.404-0.327 0.731-0.731 0.731-0.402 0-0.73-0.327-0.73-0.731v-5.536c0-0.315 0.201-0.593 0.499-0.693 0.075-0.025 0.154-0.037 0.232-0.037 0.228 0 0.446 0.109 0.584 0.293l2.837 3.864v-3.427c0-0.402 0.329-0.731 0.731-0.731 0.404 0 0.731 0.328 0.731 0.731v5.536zM25.251 13.515c0.404 0 0.731 0.328 0.731 0.731s-0.327 0.73-0.731 0.73h-2.038v1.307h2.038c0.403 0 0.731 0.328 0.731 0.73 0 0.404-0.328 0.731-0.731 0.731h-2.769c-0.402 0-0.73-0.327-0.73-0.731v-2.766c0-0.001 0-0.001 0-0.002 0 0 0-0.001 0-0.002v-2.767c0-0.402 0.327-0.731 0.73-0.731h2.769c0.404 0 0.731 0.328 0.731 0.731s-0.327 0.731-0.731 0.731h-2.038v1.307h2.038z"></path>
</symbol>
<symbol id="icon-angle-left" viewBox="0 0 12 32">
<title>angle-left</title>
<path d="M11.196 10q0 0.232-0.179 0.411l-7.018 7.018 7.018 7.018q0.179 0.179 0.179 0.411t-0.179 0.411l-0.893 0.893q-0.179 0.179-0.411 0.179t-0.411-0.179l-8.321-8.321q-0.179-0.179-0.179-0.411t0.179-0.411l8.321-8.321q0.179-0.179 0.411-0.179t0.411 0.179l0.893 0.893q0.179 0.179 0.179 0.411z"></path>
</symbol>
<symbol id="icon-angle-right" viewBox="0 0 11 32">
<title>angle-right</title>
<path d="M10.625 17.429q0 0.232-0.179 0.411l-8.321 8.321q-0.179 0.179-0.411 0.179t-0.411-0.179l-0.893-0.893q-0.179-0.179-0.179-0.411t0.179-0.411l7.018-7.018-7.018-7.018q-0.179-0.179-0.179-0.411t0.179-0.411l0.893-0.893q0.179-0.179 0.411-0.179t0.411 0.179l8.321 8.321q0.179 0.179 0.179 0.411z"></path>
</symbol>
<symbol id="icon-views" viewBox="0 0 32 32">
<title>views</title>
<path d="M16 6c-6.979 0-13.028 4.064-16 10 2.972 5.936 9.021 10 16 10s13.027-4.064 16-10c-2.972-5.936-9.021-10-16-10zM23.889 11.303c1.88 1.199 3.473 2.805 4.67 4.697-1.197 1.891-2.79 3.498-4.67 4.697-2.362 1.507-5.090 2.303-7.889 2.303s-5.527-0.796-7.889-2.303c-1.88-1.199-3.473-2.805-4.67-4.697 1.197-1.891 2.79-3.498 4.67-4.697 0.122-0.078 0.246-0.154 0.371-0.228-0.311 0.854-0.482 1.776-0.482 2.737 0 4.418 3.582 8 8 8s8-3.582 8-8c0-0.962-0.17-1.883-0.482-2.737 0.124 0.074 0.248 0.15 0.371 0.228v0zM16 13c0 1.657-1.343 3-3 3s-3-1.343-3-3 1.343-3 3-3 3 1.343 3 3z"></path>
</symbol>
<symbol id="icon-date" viewBox="0 0 32 32">
<title>date</title>
<path d="M10 12h4v4h-4zM16 12h4v4h-4zM22 12h4v4h-4zM4 24h4v4h-4zM10 24h4v4h-4zM16 24h4v4h-4zM10 18h4v4h-4zM16 18h4v4h-4zM22 18h4v4h-4zM4 18h4v4h-4zM26 0v2h-4v-2h-14v2h-4v-2h-4v32h30v-32h-4zM28 30h-26v-22h26v22z"></path>
</symbol>
<symbol id="icon-instagram" viewBox="0 0 32 32">
<title>instagram</title>
<path d="M16 2.881c4.275 0 4.781 0.019 6.462 0.094 1.563 0.069 2.406 0.331 2.969 0.55 0.744 0.288 1.281 0.638 1.837 1.194 0.563 0.563 0.906 1.094 1.2 1.838 0.219 0.563 0.481 1.412 0.55 2.969 0.075 1.688 0.094 2.194 0.094 6.463s-0.019 4.781-0.094 6.463c-0.069 1.563-0.331 2.406-0.55 2.969-0.288 0.744-0.637 1.281-1.194 1.837-0.563 0.563-1.094 0.906-1.837 1.2-0.563 0.219-1.413 0.481-2.969 0.55-1.688 0.075-2.194 0.094-6.463 0.094s-4.781-0.019-6.463-0.094c-1.563-0.069-2.406-0.331-2.969-0.55-0.744-0.288-1.281-0.637-1.838-1.194-0.563-0.563-0.906-1.094-1.2-1.837-0.219-0.563-0.481-1.413-0.55-2.969-0.075-1.688-0.094-2.194-0.094-6.463s0.019-4.781 0.094-6.463c0.069-1.563 0.331-2.406 0.55-2.969 0.288-0.744 0.638-1.281 1.194-1.838 0.563-0.563 1.094-0.906 1.838-1.2 0.563-0.219 1.412-0.481 2.969-0.55 1.681-0.075 2.188-0.094 6.463-0.094zM16 0c-4.344 0-4.887 0.019-6.594 0.094-1.7 0.075-2.869 0.35-3.881 0.744-1.056 0.412-1.95 0.956-2.837 1.85-0.894 0.888-1.438 1.781-1.85 2.831-0.394 1.019-0.669 2.181-0.744 3.881-0.075 1.713-0.094 2.256-0.094 6.6s0.019 4.887 0.094 6.594c0.075 1.7 0.35 2.869 0.744 3.881 0.413 1.056 0.956 1.95 1.85 2.837 0.887 0.887 1.781 1.438 2.831 1.844 1.019 0.394 2.181 0.669 3.881 0.744 1.706 0.075 2.25 0.094 6.594 0.094s4.888-0.019 6.594-0.094c1.7-0.075 2.869-0.35 3.881-0.744 1.050-0.406 1.944-0.956 2.831-1.844s1.438-1.781 1.844-2.831c0.394-1.019 0.669-2.181 0.744-3.881 0.075-1.706 0.094-2.25 0.094-6.594s-0.019-4.887-0.094-6.594c-0.075-1.7-0.35-2.869-0.744-3.881-0.394-1.063-0.938-1.956-1.831-2.844-0.887-0.887-1.781-1.438-2.831-1.844-1.019-0.394-2.181-0.669-3.881-0.744-1.712-0.081-2.256-0.1-6.6-0.1v0z"></path>
<path d="M16 7.781c-4.537 0-8.219 3.681-8.219 8.219s3.681 8.219 8.219 8.219 8.219-3.681 8.219-8.219c0-4.537-3.681-8.219-8.219-8.219zM16 21.331c-2.944 0-5.331-2.387-5.331-5.331s2.387-5.331 5.331-5.331c2.944 0 5.331 2.387 5.331 5.331s-2.387 5.331-5.331 5.331z"></path>
<path d="M26.462 7.456c0 1.060-0.859 1.919-1.919 1.919s-1.919-0.859-1.919-1.919c0-1.060 0.859-1.919 1.919-1.919s1.919 0.859 1.919 1.919z"></path>
</symbol>
</defs>
</svg>
