<svg width="10" height="15" viewBox="0 0 10 15" fill="none" xmlns="http://www.w3.org/2000/svg">
<path d="M8.81791 6.91463L1.95361 0.240854C1.79368 0.0853659 1.58045 0 1.35467 0C1.12889 0 0.915657 0.0853659 0.758867 0.240854L0.254001 0.731707C-0.0752595 1.05183 -0.0752595 1.57317 0.254001 1.89024L6.02076 7.49695L0.247729 13.1098C0.0878028 13.2622 0 13.4695 0 13.689C0 13.9085 0.0878028 14.1159 0.247729 14.2683L0.752595 14.7591C0.912521 14.9146 1.12262 15 1.3484 15C1.57418 15 1.78741 14.9146 1.9442 14.7591L8.81791 8.07927C8.97783 7.92378 9.06563 7.71646 9.0625 7.49695C9.06563 7.27744 8.97783 7.07012 8.81791 6.91463Z" fill="#E5E5E5"/>
</svg>
