<svg xmlns="http://www.w3.org/2000/svg" viewBox="0 0 73.54 46.85"><defs><style>.cls-1{fill:#bbbdbf;}.cls-2{fill:#ea563e;}.cls-3{fill:#2ba4b7;}</style></defs><title>Asset 1</title><g id="Layer_2" data-name="Layer 2"><g id="Layer_1-2" data-name="Layer 1"><g id="_Group_" data-name="&lt;Group&gt;"><polygon id="_Path_" data-name="&lt;Path&gt;" class="cls-1" points="39.33 2.51 64.96 2.51 63.55 33.92 40.06 33.08 39.33 2.51"/><polygon id="_Path_2" data-name="&lt;Path&gt;" class="cls-1" points="12.05 3.74 35.51 3.74 34.22 34.28 12.72 33.46 12.05 3.74"/><polygon id="_Path_3" data-name="&lt;Path&gt;" class="cls-2" points="66.08 5.65 70.35 5.65 69.7 39.85 66.08 39.85 66.08 5.65"/><path id="_Path_4" data-name="&lt;Path&gt;" class="cls-2" d="M37,42.22H5V5.65H7.86c0,.32,0,.62,0,.93q0,15.26,0,30.51A3.48,3.48,0,0,0,8,38.36a1.72,1.72,0,0,0,1.84,1H33.77a2.89,2.89,0,0,1,3.13,2.18A6.52,6.52,0,0,1,37,42.22Z"/><path id="_Path_5" data-name="&lt;Path&gt;" class="cls-2" d="M72.14,42.23H36.8a2.71,2.71,0,0,1,2.52-2.87,10.62,10.62,0,0,1,1.27,0H66.37a8.6,8.6,0,0,0,1.11-.07A1.48,1.48,0,0,0,68.88,38,5.53,5.53,0,0,0,69,37q0-15.18,0-30.37v-1h3.17Z"/><path id="_Compound_Path_" data-name="&lt;Compound Path&gt;" class="cls-1" d="M11,1.35H33.63c2.3,0,3.36,1.07,3.36,3.38q0,15.47,0,30.95v.82c-2.19-1.06-4.47-.65-6.69-.66-6.13,0-12.25,0-18.38,0H11ZM24,16h7.32a4.87,4.87,0,0,0,1-.05,1.47,1.47,0,0,0,1.21-1.34,1.49,1.49,0,0,0-.9-1.56,3.43,3.43,0,0,0-1.12-.17H16.59a4.47,4.47,0,0,0-.85.08,1.46,1.46,0,0,0-1.2,1.33c-.1,1,.58,1.7,1.73,1.71C18.83,16.06,21.39,16,24,16ZM24,21c-2.44,0-4.88,0-7.32,0-1.65,0-2.13.77-2.16,1.54,0,1,.73,1.61,2.16,1.61H31.32a2,2,0,0,0,1-.11,2.56,2.56,0,0,0,1.07-1c.42-1-.37-2-1.62-2C29.17,21,26.59,21,24,21ZM24.06,8h7.39a3.56,3.56,0,0,0,.92-.11A1.47,1.47,0,0,0,33.42,6c-.2-.81-.79-1.2-1.87-1.2h-10c-1.72,0-3.44,0-5.17,0-1.1,0-1.79.6-1.82,1.52S15.21,8,16.38,8ZM24,32.25h7.18a6.13,6.13,0,0,0,.93,0,1.54,1.54,0,0,0,0-3.07,4.44,4.44,0,0,0-.79,0h-14a11.21,11.21,0,0,0-1.36,0,1.56,1.56,0,0,0-1.39,2.06,1.69,1.69,0,0,0,1.78,1.06Z"/><path id="_Compound_Path_2" data-name="&lt;Compound Path&gt;" class="cls-1" d="M41.12,1.06c0,.33,0,.61,0,.9,0,4.6,0,9.19,0,13.79a1.62,1.62,0,0,0,1,1.78A2,2,0,0,0,44.3,17c.83-.68,1.67-1.35,2.58-2.07.91.73,1.76,1.48,2.7,2.14a3,3,0,0,0,1.56.57c1,0,1.49-.66,1.49-1.71q0-6.64,0-13.28c0-.5,0-1,0-1.56H66.26V35.46h-1c-7.24,0-14.48,0-21.71,0-2.16,0-4.36-.3-6.48.69,0-.33,0-.54,0-.75q0-15.65,0-31.31C37.1,2,38.67.79,41.12,1.06Zm10.6,19.61H44.46c-.64,0-1.29,0-1.93,0A1.56,1.56,0,0,0,41.06,22a1.47,1.47,0,0,0,1,1.58,4,4,0,0,0,1.26.18q8.39,0,16.78,0a4.89,4.89,0,0,0,1-.09,1.47,1.47,0,0,0,1-2.37,2.06,2.06,0,0,0-1.77-.67Zm0,11.22h8.63c1.21,0,2-.56,2-1.45s-.72-1.69-2.08-1.69H47.77c-1.56,0-3.12,0-4.68,0-1,0-1.71.4-2,1.1-.38,1.1.47,2,1.92,2C45.93,31.9,48.81,31.89,51.68,31.89ZM58.74,7.61c.59,0,1.19,0,1.78,0,1.11-.05,1.83-.68,1.84-1.55a1.66,1.66,0,0,0-1.81-1.57c-1.15,0-2.31,0-3.47,0A1.71,1.71,0,0,0,55.22,6c0,.85.74,1.51,1.83,1.58C57.61,7.64,58.18,7.61,58.74,7.61Zm0,8.07c.65,0,1.29,0,1.94,0a1.62,1.62,0,0,0,1.67-1.46,1.49,1.49,0,0,0-1.5-1.57,38,38,0,0,0-4.1,0,1.54,1.54,0,0,0-1.53,1.56,1.64,1.64,0,0,0,1.67,1.47C57.51,15.7,58.13,15.67,58.75,15.68Z"/><path id="_Path_6" data-name="&lt;Path&gt;" class="cls-3" d="M46,1.92h4.23V13.78c-1.41-1.85-2.79-1.93-4.23,0Z"/><path id="_Compound_Path_3" data-name="&lt;Compound Path&gt;" d="M0,5.18A1.89,1.89,0,0,1,2.07,3.9c1.29,0,2.58,0,4,0,0-.65,0-1.26,0-1.87,0-1.46.59-2,2.05-2H32a6.38,6.38,0,0,1,4.78,1.93c.42-.33.77-.65,1.16-.91a6.24,6.24,0,0,1,3.6-1h24c1.38,0,2,.59,2,2,0,.62,0,1.24,0,1.94h3.84c1.71,0,2.22.51,2.22,2.23q0,19.25,0,38.49c0,1.72-.49,2.21-2.22,2.21q-34.58,0-69.16,0A2.1,2.1,0,0,1,0,45.69Zm9.25-2V37.62h.89c6.13,0,12.26,0,18.38,0,2.22,0,4.49-.4,6.69.66v-.82q0-15.47,0-30.95c0-2.32-1.06-3.38-3.36-3.38H9.25Zm32.67.07a2.88,2.88,0,0,0-3.57,3q0,15.65,0,31.31c0,.21,0,.43,0,.75,1.89-1,3.85-.69,5.77-.69,6.44,0,12.88,0,19.32,0h.86V3.21H52.17c0,.56,0,1.06,0,1.56q0,6.64,0,13.28c0,1-.45,1.71-1.32,1.71a2.49,2.49,0,0,1-1.39-.57c-.84-.66-1.6-1.41-2.4-2.14-.81.73-1.56,1.39-2.3,2.07a1.57,1.57,0,0,1-2.84-1.22c0-4.6,0-9.19,0-13.79C41.92,3.83,41.92,3.55,41.92,3.22ZM35.21,43.66a6.52,6.52,0,0,0-.1-.73A2.89,2.89,0,0,0,32,40.76H8.07a1.72,1.72,0,0,1-1.84-1,3.48,3.48,0,0,1-.17-1.27q0-15.26,0-30.51c0-.3,0-.6,0-.93H3.19V43.66Zm35.14,0V7.1H67.48v1q0,15.18,0,30.37a6.11,6.11,0,0,1-.07,1,1.4,1.4,0,0,1-1.27,1.25,7,7,0,0,1-1,.07H41.87a8.66,8.66,0,0,0-1.15,0,2.64,2.64,0,0,0-2.28,2.87ZM44.94,3.18V15c1.44-1.93,2.82-1.85,4.23,0V3.18Z"/><path id="_Path_7" data-name="&lt;Path&gt;" d="M22.16,17.84c-2.56,0-5.12,0-7.68,0-1.15,0-1.84-.71-1.73-1.71a1.46,1.46,0,0,1,1.2-1.33,4.47,4.47,0,0,1,.85-.08H29.65a3.43,3.43,0,0,1,1.12.17,1.49,1.49,0,0,1,.9,1.56,1.47,1.47,0,0,1-1.21,1.34,4.87,4.87,0,0,1-1,.05Z"/><path id="_Path_8" data-name="&lt;Path&gt;" d="M22.21,22.82c2.58,0,5.17,0,7.75,0,1.25,0,2,.95,1.62,2a2.56,2.56,0,0,1-1.07,1,2,2,0,0,1-1,.11H14.89c-1.43,0-2.21-.57-2.16-1.61,0-.77.51-1.58,2.16-1.54C17.33,22.87,19.77,22.82,22.21,22.82Z"/><path id="_Path_9" data-name="&lt;Path&gt;" d="M51.32,30.45c-2.56,0-5.12,0-7.68,0-1.29,0-2-.94-1.71-2a1.63,1.63,0,0,1,1.74-1.1c1.39,0,2.77,0,4.16,0H59c1.21,0,1.93.68,1.85,1.69A1.6,1.6,0,0,1,59,30.45Z"/><path id="_Path_10" data-name="&lt;Path&gt;" d="M57.61,13.52c-.55,0-1.1,0-1.65,0A1.54,1.54,0,0,1,54.47,12a1.47,1.47,0,0,1,1.36-1.56,30,30,0,0,1,3.65,0,1.43,1.43,0,0,1,1.33,1.57,1.51,1.51,0,0,1-1.49,1.46C58.76,13.55,58.18,13.52,57.61,13.52Z"/></g></g></g></svg>