<svg xmlns="http://www.w3.org/2000/svg" width="65.666" height="65.667" viewBox="0 0 65.666 65.667">
  <path id="Path_473" data-name="Path 473" d="M61.819,42.783V16.366l2.6-.97a1.924,1.924,0,0,0,.007-3.6L33.513.124a1.919,1.919,0,0,0-1.359,0L1.244,11.795a1.923,1.923,0,0,0,.007,3.6l10.42,3.892V33.313A1.924,1.924,0,0,0,12.881,35.1a53.482,53.482,0,0,0,19.953,3.843A53.482,53.482,0,0,0,52.786,35.1,1.924,1.924,0,0,0,54,33.313V19.288L57.971,17.8v24.98A5.766,5.766,0,0,0,55.6,52.071a5.749,5.749,0,0,0-1.474,3.848v7.824a1.924,1.924,0,0,0,1.924,1.924h7.7a1.924,1.924,0,0,0,1.924-1.924V55.918a5.749,5.749,0,0,0-1.474-3.848,5.766,5.766,0,0,0-2.373-9.288ZM32.833,3.98l25.437,9.6-25.437,9.5L7.4,13.584ZM50.147,31.993a49.639,49.639,0,0,1-34.629,0V20.725L32.16,26.94a1.928,1.928,0,0,0,1.346,0l16.641-6.215ZM59.895,46.3a1.924,1.924,0,1,1-1.924,1.924A1.926,1.926,0,0,1,59.895,46.3Zm1.924,15.519H57.971v-5.9a1.924,1.924,0,0,1,3.848,0Z" transform="translate(0 0.001)" fill="#fff"/>
</svg>
