<svg xmlns="http://www.w3.org/2000/svg" width="65.667" height="65.667" viewBox="0 0 65.667 65.667">
  <path id="Path_475" data-name="Path 475" d="M0,65.667H65.667V34.757H50.148v-7L52.533,29.8l2.5-2.922L37.131,11.543H52.869L47.1,5.771,52.869,0H30.909V9.51L10.63,26.878l2.5,2.922,2.386-2.043v7H0ZM38.6,50.148V61.819H34.757V50.148ZM27.157,46.3a9.817,9.817,0,0,1,5.676-7.468A9.6,9.6,0,0,1,38.51,46.3Zm-.1,3.848h3.848V61.819H27.062ZM61.819,38.6V61.819H50.148V38.6ZM34.757,3.848h8.822L41.655,5.771,43.579,7.7H34.757Zm-1.924,9.081L46.3,24.462V61.819H42.452V47.662a13.467,13.467,0,0,0-7.444-12.045L32.833,34.53l-2.175,1.087a13.467,13.467,0,0,0-7.444,12.045V61.819H19.366V24.462ZM3.848,38.6H15.519V61.819H3.848Z" fill="#fff"/>
</svg>
