<svg style="position: absolute; width: 0; height: 0; overflow: hidden;" version="1.1" xmlns="http://www.w3.org/2000/svg">
<defs>
<symbol id="icon-kompascom" viewBox="0 0 32 32">
<title>kompascom</title>
<path d="M5.567 5.351l-1.353-0.277c-1.46-0.298-2.269 0.612-1.798 2.026l2.92 8.773c0.061 0.186 0.128 0.387 0.201 0.6 0.003-1.483 0.009-3.492 0.013-4.786l0.019-6.335zM15.868 23.112l-6.821 3.91 0.92 2.764c0.471 1.413 1.665 1.659 2.653 0.543l6.136-6.913c0.973-1.095 2.552-2.873 3.543-3.992l-1.73 0.993c-1.292 0.741-3.408 1.954-4.7 2.695zM28.14 12.842l0.351-0.396c0.989-1.115 0.605-2.271-0.856-2.571l-7.101-1.456c0.024 0.014 0.049 0.028 0.071 0.041l7.536 4.38zM18.578 8.018l1.954 0.402c-1.296-0.752-3.347-1.947-4.614-2.682l-7.994-4.646c-1.287-0.75-2.345-0.142-2.349 1.349l-0.010 2.91 7.703 1.58c1.46 0.299 3.848 0.79 5.309 1.088zM28.597 13.108l-0.457-0.266-5.785 6.52c-0.020 0.019-0.037 0.042-0.055 0.061l6.29-3.606c1.293-0.742 1.296-1.961 0.008-2.71zM5.536 16.472c-0.002 0.223-0.003 0.436-0.003 0.631l-0.028 9.246c-0.005 1.489 1.050 2.102 2.341 1.36l1.2-0.687-2.001-6.010c-0.409-1.228-1.043-3.134-1.511-4.541z"></path>
</symbol>
<symbol id="icon-internet" viewBox="0 0 32 32">
<title>internet</title>
<path d="M1 24.917h14v3.583h-6.75v2h15.5v-2h-6.75v-3.583h14c0.55 0 1-0.45 1-1v-21.417c0-0.55-0.45-1-1-1h-30c-0.55 0-1 0.45-1 1v21.417c0 0.55 0.45 1 1 1zM2 3.5h28v19.417h-28v-19.417z"></path>
<path d="M24.801 14.342l-0.997-3.974h-1.366l-1.041 3.909-0.858-3.909h-1.97l-0.874 3.974-0.997-3.974h-1.366l-1.040 3.909-0.858-3.909h-1.971l-0.873 3.974-0.997-3.974h-1.366l-1.041 3.909-0.858-3.909h-1.176l1.359 5.69h1.246l1.129-4.254 1.134 4.254h1.218l1.199-4.938 1.179 4.938h1.246l1.13-4.254 1.133 4.254h1.219l1.199-4.938 1.179 4.938h1.246l1.129-4.254 1.133 4.254h1.219l1.382-5.69h-1.156z"></path>
</symbol>
<symbol id="icon-search" viewBox="0 0 34 32">
<title>search</title>
<path d="M6.955 22.949l2.307 2.262-6.922 6.789-2.309-2.262 6.923-6.789zM19.612 22.4c-5.398 0-9.79-4.307-9.79-9.6 0-5.294 4.393-9.6 9.79-9.6 5.399 0 9.79 4.306 9.79 9.6 0 5.293-4.391 9.6-9.79 9.6v0zM19.612 0c-7.209 0-13.054 5.731-13.054 12.8s5.845 12.8 13.054 12.8c7.211 0 13.054-5.731 13.054-12.8s-5.843-12.8-13.054-12.8v0z"></path>
</symbol>
<symbol id="icon-twitter" viewBox="0 0 30 32">
<title>twitter</title>
<path d="M28.929 7.571q-1.196 1.75-2.893 2.982 0.018 0.25 0.018 0.75 0 2.321-0.679 4.634t-2.063 4.437-3.295 3.759-4.607 2.607-5.768 0.973q-4.839 0-8.857-2.589 0.625 0.071 1.393 0.071 4.018 0 7.161-2.464-1.875-0.036-3.357-1.152t-2.036-2.848q0.589 0.089 1.089 0.089 0.768 0 1.518-0.196-2-0.411-3.313-1.991t-1.313-3.67v-0.071q1.214 0.679 2.607 0.732-1.179-0.786-1.875-2.054t-0.696-2.75q0-1.571 0.786-2.911 2.161 2.661 5.259 4.259t6.634 1.777q-0.143-0.679-0.143-1.321 0-2.393 1.688-4.080t4.080-1.688q2.5 0 4.214 1.821 1.946-0.375 3.661-1.393-0.661 2.054-2.536 3.179 1.661-0.179 3.321-0.893z"></path>
</symbol>
<symbol id="icon-facebook" viewBox="0 0 18 32">
<title>facebook</title>
<path d="M17.125 0.5v4.714h-2.804q-1.536 0-2.071 0.643t-0.536 1.929v3.375h5.232l-0.696 5.286h-4.536v13.554h-5.464v-13.554h-4.554v-5.286h4.554v-3.893q0-3.321 1.857-5.152t4.946-1.83q2.625 0 4.071 0.214z"></path>
</symbol>
<symbol id="icon-google-plus" viewBox="0 0 32 32">
<title>google-plus</title>
<path d="M10.31 14.338v3.415h5.648c-0.228 1.464-1.707 4.296-5.648 4.296-3.4 0-6.174-2.816-6.174-6.288s2.774-6.288 6.174-6.288c1.935 0 3.229 0.825 3.969 1.537l2.703-2.604c-1.736-1.622-3.983-2.603-6.672-2.603-5.506 0-9.958 4.453-9.958 9.958s4.453 9.958 9.958 9.958c5.747 0 9.561-4.040 9.561-9.73 0-0.654-0.072-1.152-0.158-1.65l-9.402 0zM31.649 14.338h-2.845v-2.845h-2.845v2.845h-2.845v2.845h2.845v2.845h2.845v-2.845h2.845z"></path>
</symbol>
<symbol id="icon-line" viewBox="0 0 34 32">
<title>line</title>
<path d="M30.632 14.035c0-6.234-6.252-11.307-13.935-11.307s-13.933 5.072-13.933 11.307c0 5.589 4.957 10.271 11.653 11.157 0.454 0.097 1.071 0.3 1.227 0.687 0.14 0.351 0.091 0.903 0.044 1.259 0 0-0.162 0.983-0.198 1.194-0.060 0.352-0.28 1.377 1.206 0.75 1.488-0.626 8.025-4.725 10.948-8.090h-0.001c2.021-2.213 2.988-4.461 2.988-6.957zM11.243 17.744h-2.768c-0.404 0-0.731-0.327-0.731-0.731v-5.536c0-0.402 0.328-0.731 0.731-0.731 0.402 0 0.73 0.328 0.73 0.731v4.806h2.038c0.404 0 0.73 0.328 0.73 0.73 0 0.404-0.326 0.731-0.73 0.731zM14.107 17.013c0 0.404-0.328 0.731-0.73 0.731s-0.731-0.327-0.731-0.731v-5.536c0-0.402 0.328-0.731 0.731-0.731s0.73 0.328 0.73 0.731v5.536zM20.771 17.013c0 0.316-0.2 0.595-0.499 0.694-0.075 0.025-0.154 0.038-0.233 0.038-0.227 0-0.446-0.109-0.583-0.293l-2.837-3.863v3.424c0 0.404-0.327 0.731-0.731 0.731-0.402 0-0.73-0.327-0.73-0.731v-5.536c0-0.315 0.201-0.593 0.499-0.693 0.075-0.025 0.154-0.037 0.232-0.037 0.228 0 0.446 0.109 0.584 0.293l2.837 3.864v-3.427c0-0.402 0.329-0.731 0.731-0.731 0.404 0 0.731 0.328 0.731 0.731v5.536zM25.251 13.515c0.404 0 0.731 0.328 0.731 0.731s-0.327 0.73-0.731 0.73h-2.038v1.307h2.038c0.403 0 0.731 0.328 0.731 0.73 0 0.404-0.328 0.731-0.731 0.731h-2.769c-0.402 0-0.73-0.327-0.73-0.731v-2.766c0-0.001 0-0.001 0-0.002 0 0 0-0.001 0-0.002v-2.767c0-0.402 0.327-0.731 0.73-0.731h2.769c0.404 0 0.731 0.328 0.731 0.731s-0.327 0.731-0.731 0.731h-2.038v1.307h2.038z"></path>
</symbol>
<symbol id="icon-angle-left" viewBox="0 0 12 32">
<title>angle-left</title>
<path d="M11.196 10q0 0.232-0.179 0.411l-7.018 7.018 7.018 7.018q0.179 0.179 0.179 0.411t-0.179 0.411l-0.893 0.893q-0.179 0.179-0.411 0.179t-0.411-0.179l-8.321-8.321q-0.179-0.179-0.179-0.411t0.179-0.411l8.321-8.321q0.179-0.179 0.411-0.179t0.411 0.179l0.893 0.893q0.179 0.179 0.179 0.411z"></path>
</symbol>
<symbol id="icon-angle-right" viewBox="0 0 11 32">
<title>angle-right</title>
<path d="M10.625 17.429q0 0.232-0.179 0.411l-8.321 8.321q-0.179 0.179-0.411 0.179t-0.411-0.179l-0.893-0.893q-0.179-0.179-0.179-0.411t0.179-0.411l7.018-7.018-7.018-7.018q-0.179-0.179-0.179-0.411t0.179-0.411l0.893-0.893q0.179-0.179 0.411-0.179t0.411 0.179l8.321 8.321q0.179 0.179 0.179 0.411z"></path>
</symbol>
<symbol id="icon-angle-up" viewBox="0 0 21 32">
<title>angle-up</title>
<path d="M19.196 21.429q0 0.232-0.179 0.411l-0.893 0.893q-0.179 0.179-0.411 0.179t-0.411-0.179l-7.018-7.018-7.018 7.018q-0.179 0.179-0.411 0.179t-0.411-0.179l-0.893-0.893q-0.179-0.179-0.179-0.411t0.179-0.411l8.321-8.321q0.179-0.179 0.411-0.179t0.411 0.179l8.321 8.321q0.179 0.179 0.179 0.411z"></path>
</symbol>
<symbol id="icon-angle-down" viewBox="0 0 21 32">
<title>angle-down</title>
<path d="M19.196 13.429q0 0.232-0.179 0.411l-8.321 8.321q-0.179 0.179-0.411 0.179t-0.411-0.179l-8.321-8.321q-0.179-0.179-0.179-0.411t0.179-0.411l0.893-0.893q0.179-0.179 0.411-0.179t0.411 0.179l7.018 7.018 7.018-7.018q0.179-0.179 0.411-0.179t0.411 0.179l0.893 0.893q0.179 0.179 0.179 0.411z"></path>
</symbol>
<symbol id="icon-instagram" viewBox="0 0 32 32">
<title>instagram</title>
<path d="M16 2.881c4.275 0 4.781 0.019 6.462 0.094 1.563 0.069 2.406 0.331 2.969 0.55 0.744 0.288 1.281 0.638 1.837 1.194 0.563 0.563 0.906 1.094 1.2 1.838 0.219 0.563 0.481 1.412 0.55 2.969 0.075 1.688 0.094 2.194 0.094 6.463s-0.019 4.781-0.094 6.463c-0.069 1.563-0.331 2.406-0.55 2.969-0.288 0.744-0.637 1.281-1.194 1.837-0.563 0.563-1.094 0.906-1.837 1.2-0.563 0.219-1.413 0.481-2.969 0.55-1.688 0.075-2.194 0.094-6.463 0.094s-4.781-0.019-6.463-0.094c-1.563-0.069-2.406-0.331-2.969-0.55-0.744-0.288-1.281-0.637-1.838-1.194-0.563-0.563-0.906-1.094-1.2-1.837-0.219-0.563-0.481-1.413-0.55-2.969-0.075-1.688-0.094-2.194-0.094-6.463s0.019-4.781 0.094-6.463c0.069-1.563 0.331-2.406 0.55-2.969 0.288-0.744 0.638-1.281 1.194-1.838 0.563-0.563 1.094-0.906 1.838-1.2 0.563-0.219 1.412-0.481 2.969-0.55 1.681-0.075 2.188-0.094 6.463-0.094zM16 0c-4.344 0-4.887 0.019-6.594 0.094-1.7 0.075-2.869 0.35-3.881 0.744-1.056 0.412-1.95 0.956-2.837 1.85-0.894 0.888-1.438 1.781-1.85 2.831-0.394 1.019-0.669 2.181-0.744 3.881-0.075 1.713-0.094 2.256-0.094 6.6s0.019 4.887 0.094 6.594c0.075 1.7 0.35 2.869 0.744 3.881 0.413 1.056 0.956 1.95 1.85 2.837 0.887 0.887 1.781 1.438 2.831 1.844 1.019 0.394 2.181 0.669 3.881 0.744 1.706 0.075 2.25 0.094 6.594 0.094s4.888-0.019 6.594-0.094c1.7-0.075 2.869-0.35 3.881-0.744 1.050-0.406 1.944-0.956 2.831-1.844s1.438-1.781 1.844-2.831c0.394-1.019 0.669-2.181 0.744-3.881 0.075-1.706 0.094-2.25 0.094-6.594s-0.019-4.887-0.094-6.594c-0.075-1.7-0.35-2.869-0.744-3.881-0.394-1.063-0.938-1.956-1.831-2.844-0.887-0.887-1.781-1.438-2.831-1.844-1.019-0.394-2.181-0.669-3.881-0.744-1.712-0.081-2.256-0.1-6.6-0.1v0z"></path>
<path d="M16 7.781c-4.537 0-8.219 3.681-8.219 8.219s3.681 8.219 8.219 8.219 8.219-3.681 8.219-8.219c0-4.537-3.681-8.219-8.219-8.219zM16 21.331c-2.944 0-5.331-2.387-5.331-5.331s2.387-5.331 5.331-5.331c2.944 0 5.331 2.387 5.331 5.331s-2.387 5.331-5.331 5.331z"></path>
<path d="M26.462 7.456c0 1.060-0.859 1.919-1.919 1.919s-1.919-0.859-1.919-1.919c0-1.060 0.859-1.919 1.919-1.919s1.919 0.859 1.919 1.919z"></path>
</symbol>
<symbol id="icon-globe" viewBox="0 0 24 28">
<title>globe</title>
<path d="M12 2c6.625 0 12 5.375 12 12s-5.375 12-12 12-12-5.375-12-12 5.375-12 12-12zM16.281 10.141c-0.125 0.094-0.203 0.266-0.359 0.297 0.078-0.016 0.156-0.297 0.203-0.359 0.094-0.109 0.219-0.172 0.344-0.234 0.266-0.109 0.531-0.141 0.812-0.187 0.266-0.063 0.594-0.063 0.797 0.172-0.047-0.047 0.328-0.375 0.375-0.391 0.141-0.078 0.375-0.047 0.469-0.187 0.031-0.047 0.031-0.344 0.031-0.344-0.266 0.031-0.359-0.219-0.375-0.438 0 0.016-0.031 0.063-0.094 0.125 0.016-0.234-0.281-0.063-0.391-0.094-0.359-0.094-0.313-0.344-0.422-0.609-0.063-0.141-0.234-0.187-0.297-0.328-0.063-0.094-0.094-0.297-0.234-0.313-0.094-0.016-0.266 0.328-0.297 0.313-0.141-0.078-0.203 0.031-0.313 0.094-0.094 0.063-0.172 0.031-0.266 0.078 0.281-0.094-0.125-0.25-0.266-0.219 0.219-0.063 0.109-0.297-0.016-0.406h0.078c-0.031-0.141-0.469-0.266-0.609-0.359s-0.891-0.25-1.047-0.156c-0.187 0.109 0.047 0.422 0.047 0.578 0.016 0.187-0.187 0.234-0.187 0.391 0 0.266 0.5 0.219 0.375 0.578-0.078 0.219-0.375 0.266-0.5 0.438-0.125 0.156 0.016 0.438 0.141 0.547 0.125 0.094-0.219 0.25-0.266 0.281-0.266 0.125-0.469-0.266-0.531-0.5-0.047-0.172-0.063-0.375-0.25-0.469-0.094-0.031-0.391-0.078-0.453 0.016-0.094-0.234-0.422-0.328-0.641-0.406-0.313-0.109-0.578-0.109-0.906-0.063 0.109-0.016-0.031-0.5-0.297-0.422 0.078-0.156 0.047-0.328 0.078-0.484 0.031-0.125 0.094-0.25 0.187-0.359 0.031-0.063 0.375-0.422 0.266-0.438 0.266 0.031 0.562 0.047 0.781-0.172 0.141-0.141 0.203-0.375 0.344-0.531 0.203-0.234 0.453 0.063 0.672 0.078 0.313 0.016 0.297-0.328 0.125-0.484 0.203 0.016 0.031-0.359-0.078-0.406-0.141-0.047-0.672 0.094-0.391 0.203-0.063-0.031-0.438 0.75-0.656 0.359-0.063-0.078-0.094-0.406-0.234-0.422-0.125 0-0.203 0.141-0.25 0.234 0.078-0.203-0.438-0.344-0.547-0.359 0.234-0.156 0.047-0.328-0.125-0.422-0.125-0.078-0.516-0.141-0.625-0.016-0.297 0.359 0.313 0.406 0.469 0.5 0.047 0.031 0.234 0.141 0.125 0.219-0.094 0.047-0.375 0.125-0.406 0.187-0.094 0.141 0.109 0.297-0.031 0.438-0.141-0.141-0.141-0.375-0.25-0.531 0.141 0.172-0.562 0.078-0.547 0.078-0.234 0-0.609 0.156-0.781-0.078-0.031-0.063-0.031-0.422 0.063-0.344-0.141-0.109-0.234-0.219-0.328-0.281-0.516 0.172-1 0.391-1.469 0.641 0.063 0.016 0.109 0.016 0.187-0.016 0.125-0.047 0.234-0.125 0.359-0.187 0.156-0.063 0.484-0.25 0.656-0.109 0.016-0.031 0.063-0.063 0.078-0.078 0.109 0.125 0.219 0.25 0.313 0.391-0.125-0.063-0.328-0.031-0.469-0.016-0.109 0.031-0.297 0.063-0.344 0.187 0.047 0.078 0.109 0.203 0.078 0.281-0.203-0.141-0.359-0.375-0.641-0.406-0.125 0-0.25 0-0.344 0.016-1.5 0.828-2.766 2.031-3.672 3.469 0.063 0.063 0.125 0.109 0.187 0.125 0.156 0.047 0 0.5 0.297 0.266 0.094 0.078 0.109 0.187 0.047 0.297 0.016-0.016 0.641 0.391 0.688 0.422 0.109 0.094 0.281 0.203 0.328 0.328 0.031 0.109-0.063 0.234-0.156 0.281-0.016-0.031-0.25-0.266-0.281-0.203-0.047 0.078 0 0.5 0.172 0.484-0.25 0.016-0.141 0.984-0.203 1.172 0 0.016 0.031 0.016 0.031 0.016-0.047 0.187 0.109 0.922 0.422 0.844-0.203 0.047 0.359 0.766 0.438 0.812 0.203 0.141 0.438 0.234 0.578 0.438 0.156 0.219 0.156 0.547 0.375 0.719-0.063 0.187 0.328 0.406 0.313 0.672-0.031 0.016-0.047 0.016-0.078 0.031 0.078 0.219 0.375 0.219 0.484 0.422 0.063 0.125 0 0.422 0.203 0.359 0.031-0.344-0.203-0.688-0.375-0.969-0.094-0.156-0.187-0.297-0.266-0.453-0.078-0.141-0.094-0.313-0.156-0.469 0.063 0.016 0.406 0.141 0.375 0.187-0.125 0.313 0.5 0.859 0.672 1.062 0.047 0.047 0.406 0.516 0.219 0.516 0.203 0 0.484 0.313 0.578 0.469 0.141 0.234 0.109 0.531 0.203 0.781 0.094 0.313 0.531 0.453 0.781 0.594 0.219 0.109 0.406 0.266 0.625 0.344 0.328 0.125 0.406 0.016 0.688-0.031 0.406-0.063 0.453 0.391 0.781 0.562 0.203 0.109 0.641 0.266 0.859 0.172-0.094 0.031 0.328 0.672 0.359 0.719 0.141 0.187 0.406 0.281 0.562 0.469 0.047-0.031 0.094-0.078 0.109-0.141-0.063 0.172 0.234 0.5 0.391 0.469 0.172-0.031 0.219-0.375 0.219-0.5-0.313 0.156-0.594 0.031-0.766-0.281-0.031-0.078-0.281-0.516-0.063-0.516 0.297 0 0.094-0.234 0.063-0.453s-0.25-0.359-0.359-0.547c-0.094 0.187-0.406 0.141-0.5-0.016 0 0.047-0.047 0.125-0.047 0.187-0.078 0-0.156 0.016-0.234-0.016 0.031-0.187 0.047-0.422 0.094-0.625 0.078-0.281 0.594-0.828-0.078-0.797-0.234 0.016-0.328 0.109-0.406 0.313-0.078 0.187-0.047 0.359-0.266 0.453-0.141 0.063-0.609 0.031-0.75-0.047-0.297-0.172-0.5-0.719-0.5-1.031-0.016-0.422 0.203-0.797 0-1.188 0.094-0.078 0.187-0.234 0.297-0.313 0.094-0.063 0.203 0.047 0.25-0.141-0.047-0.031-0.109-0.094-0.125-0.094 0.234 0.109 0.672-0.156 0.875 0 0.125 0.094 0.266 0.125 0.344-0.031 0.016-0.047-0.109-0.234-0.047-0.359 0.047 0.266 0.219 0.313 0.453 0.141 0.094 0.094 0.344 0.063 0.516 0.156 0.172 0.109 0.203 0.281 0.406 0.047 0.125 0.187 0.141 0.187 0.187 0.375 0.047 0.172 0.141 0.609 0.297 0.688 0.328 0.203 0.25-0.344 0.219-0.531-0.016-0.016-0.016-0.531-0.031-0.531-0.5-0.109-0.313-0.5-0.031-0.766 0.047-0.031 0.406-0.156 0.562-0.281 0.141-0.125 0.313-0.344 0.234-0.547 0.078 0 0.141-0.063 0.172-0.141-0.047-0.016-0.234-0.172-0.266-0.156 0.109-0.063 0.094-0.156 0.031-0.25 0.156-0.094 0.078-0.266 0.234-0.328 0.172 0.234 0.516-0.031 0.344-0.219 0.156-0.219 0.516-0.109 0.609-0.313 0.234 0.063 0.063-0.234 0.187-0.406 0.109-0.141 0.297-0.141 0.438-0.219 0 0.016 0.391-0.219 0.266-0.234 0.266 0.031 0.797-0.25 0.391-0.484 0.063-0.141-0.141-0.203-0.281-0.234 0.109-0.031 0.25 0.031 0.344-0.031 0.203-0.141 0.063-0.203-0.109-0.25-0.219-0.063-0.5 0.078-0.672 0.187zM13.734 23.844c2.141-0.375 4.047-1.437 5.484-2.953-0.094-0.094-0.266-0.063-0.391-0.125-0.125-0.047-0.219-0.094-0.375-0.125 0.031-0.313-0.313-0.422-0.531-0.578-0.203-0.156-0.328-0.328-0.625-0.266-0.031 0.016-0.344 0.125-0.281 0.187-0.203-0.172-0.297-0.266-0.562-0.344-0.25-0.078-0.422-0.391-0.672-0.109-0.125 0.125-0.063 0.313-0.125 0.438-0.203-0.172 0.187-0.375 0.031-0.562-0.187-0.219-0.516 0.141-0.672 0.234-0.094 0.078-0.203 0.109-0.266 0.203-0.078 0.109-0.109 0.25-0.172 0.359-0.047-0.125-0.313-0.094-0.328-0.187 0.063 0.375 0.063 0.766 0.141 1.141 0.047 0.219 0 0.578-0.187 0.75s-0.422 0.359-0.453 0.625c-0.031 0.187 0.016 0.359 0.187 0.406 0.016 0.234-0.25 0.406-0.234 0.656 0 0.016 0.016 0.172 0.031 0.25z"></path>
</symbol>
</defs>
</svg>
